# xmcd
#
# Track frame offsets:
#	150
#	69994
#	130466
#	158652
#	178188
#	224626
#
# Disc length: 3173 seconds
#
# Revision: 0
# Processed by: cddbd v1.5.2PL0 Copyright (c) Steve Scherf et al.
# Submitted via: audiograbber 1.83.01
#
DISCID=580c6306
DTITLE=Grateful Dead - 93-12-17 Oakland Coliseum Arena, Oakland CA
DYEAR=1900
DGENRE=
TTITLE0=Drums
TTITLE1=Space
TTITLE2=The Last Time
TTITLE3=Attics Of My Life
TTITLE4=Good Lovin'
TTITLE5=I Fought The Law
EXTD=
EXTT0=
EXTT1=
EXTT2=
EXTT3=
EXTT4=
EXTT5=
PLAYORDER=
